<svg xmlns="http://www.w3.org/2000/svg" viewBox="0 0 64 64">
<title>Artboard-12</title><g id="Label_Discount" data-name="Label Discount">
<circle cx="36" cy="54" r="1" style="fill:#232328"/>
<circle cx="28" cy="46" r="1" style="fill:#232328"/>
<path d="M47.59,16.19l-15-11a1.022,1.022,0,0,0-1.18,0l-7.1487,5.244A25.1792,25.1792,0,0,1,23,2a1,1,0,0,0-2,0,26.05,26.05,0,0,0,1.6072,9.6473L22.59,11.66a14.0162,14.0162,0,0,0,4.54,6.21l.0055-.017a12.0149,12.0149,0,0,0,1.867,1.1714,3.0351,3.0351,0,1,0,.6444-1.8594,9.6756,9.6756,0,0,1-1.6641-1.1144A4.9863,4.9863,0,1,1,27.16,20.24a15.5224,15.5224,0,0,1-6.21-7.38l-4.54,3.33A1,1,0,0,0,16,17V62a1.0029,1.0029,0,0,0,1,1H47a1.0029,1.0029,0,0,0,1-1V17A1,1,0,0,0,47.59,16.19ZM25,46a3,3,0,1,1,3,3A3.0033,3.0033,0,0,1,25,46Zm1.293,9.707a.9994.9994,0,0,1,0-1.414l10-10a1,1,0,0,1,1.414,1.414l-10,10A.9994.9994,0,0,1,26.293,55.707ZM36,57a3,3,0,1,1,3-3A3.0033,3.0033,0,0,1,36,57Z" style="fill:#089da1"/></g></svg>